<svg xmlns="http://www.w3.org/2000/svg" viewBox="0 0 680 620" role="img" aria-label="DEVFIT">
  <rect width="680" height="620" fill="#E9E9E9"/>
  <g transform="translate(207 8) scale(0.74)">
    <g fill="#111111" stroke="#111111" stroke-linecap="round" stroke-linejoin="round">
      <ellipse cx="180" cy="544" rx="118" ry="12" stroke="none"/>
      <path d="M170 304 L126 408" stroke-width="38"/>
      <path d="M126 408 L100 502" stroke-width="29"/>
      <path d="M100 502 L78 518 L126 520 L126 503 Z" stroke-width="5"/>
      <path d="M212 304 L246 400" stroke-width="42"/>
      <path d="M246 400 L230 500" stroke-width="31"/>
      <path d="M230 500 L210 516 L262 518 L256 502 Z" stroke-width="5"/>
      <path d="M122 168 Q112 148 134 142 L248 138 Q270 150 260 172 L242 244 Q232 296 206 308 L176 308 Q150 296 142 244 Z" stroke-width="2"/>
      <path d="M167 132 L216 130 L208 160 L173 160 Z" stroke-width="2"/>
      <circle cx="192" cy="104" r="30"/>
      <circle cx="176" cy="81" r="12"/><circle cx="196" cy="74" r="13"/>
      <circle cx="213" cy="83" r="11"/><circle cx="207" cy="96" r="10"/>
      <path d="M140 162 L98 98" stroke-width="33"/>
      <ellipse cx="114" cy="130" rx="20" ry="25" transform="rotate(28 114 130)"/>
      <path d="M98 98 L132 54" stroke-width="25"/>
      <circle cx="134" cy="52" r="16"/>
      <path d="M248 162 L300 152" stroke-width="31"/>
      <path d="M300 152 L284 100" stroke-width="24"/>
      <circle cx="282" cy="96" r="15"/>
    </g>
  </g>
  <text x="340" y="520" text-anchor="middle" font-family="'Arial Black','Helvetica Neue',Arial,sans-serif" font-weight="900" font-style="italic" font-size="90" letter-spacing="1">
    <tspan fill="#111111">DEV</tspan><tspan fill="#C0392B">FIT</tspan>
  </text>
  <text x="340" y="562" text-anchor="middle" font-family="'Arial','Helvetica Neue',sans-serif" font-weight="700" font-size="17" letter-spacing="3.2">
    <tspan fill="#C0392B">DOMINANCE </tspan><tspan fill="#111111">THROUGH </tspan><tspan fill="#C0392B"> DISCIPLINE</tspan>
  </text>
</svg>
